<svg width="145" height="" version="1.1" viewBox="0 0 52.917 52.917" xmlns="http://www.w3.org/2000/svg">
 <g transform="translate(0 -244.08)">
  <g transform="matrix(.32436 0 0 .32436 -9.0778 247.21)">
   <g transform="translate(.94494 3.0238)" stroke-miterlimit="22.926">
    <rect x="59.053" y="50.846" width="50" height="3" stroke-width=".64639"/>
    <rect x="59.053" y="73.505" width="50" height="3" stroke-width=".64639"/>
    <rect x="59.053" y="50.846" width="3" height="25.659" stroke-width=".47276"/>
    <rect x="106.05" y="70.505" width="3" height="6" stroke-width=".22861"/>
    <rect x="106.05" y="50.846" width="3" height="6" stroke-width=".22861"/>
   </g>
   <g transform="translate(-3.7798 34.018)">
    <text x="69.437119" y="36.319057" fill="#000000" font-family="sans-serif" font-size="10.583px" letter-spacing="0px" stroke-width=".26458" word-spacing="0px" style="line-height:1.25" xml:space="preserve"><tspan x="69.437119" y="36.319057" font-family="sans-serif" font-weight="bold" stroke-width=".26458">TIME T   ESCAPE</tspan></text>
    <path d="m117.91 32.606c4e-3 2.2058-1.7948 4.0095-4.0006 4.011-0.95268 7.66e-4 -1.8278-0.33141-2.5154-0.88643-0.17882-0.14432-0.19218-0.41231-0.0297-0.5748l0.18189-0.18189c0.13897-0.13898 0.36084-0.15418 0.51481-0.03201 0.50664 0.40204 1.1478 0.64201 1.8455 0.64201 1.6418 0 2.9703-1.3287 2.9703-2.9703 0-1.6418-1.3287-2.9703-2.9703-2.9703-0.788 0-1.5037 0.30622-2.0351 0.80605l0.81932 0.81932c0.16272 0.16272 0.0474 0.44093-0.18263 0.44093h-2.3468c-0.14265 0-0.25828-0.11564-0.25828-0.25829v-2.3468c0-0.2301 0.2782-0.34535 0.44092-0.18264l0.79702 0.79701c0.71873-0.68687 1.6928-1.1088 2.7655-1.1088 2.2085 0 3.9994 1.7883 4.0035 3.9959zm-2.9204 1.2718 0.15857-0.20389c0.13137-0.1689 0.10094-0.41232-0.0679-0.54368l-0.65704-0.51104v-1.6845c0-0.21397-0.17345-0.38743-0.38743-0.38743h-0.25828c-0.21398 0-0.38744 0.17346-0.38744 0.38743v2.1898l1.0559 0.82126c0.1689 0.13136 0.4123 0.10094 0.54368-0.06797z" fill="currentColor" stroke-width=".016143"/>
   </g>
  </g>
 </g>
</svg>
